HIERARCHY
ROOT Hips
{
	OFFSET 0.000000 0.000000 0.000000
	CHANNELS 6 Xposition Yposition Zposition Xrotation Yrotation Zrotation
	JOINT LeftUpLeg_virtual
	{
		OFFSET 0.000000 0.000000 0.000000
		CHANNELS 3 Xrotation Yrotation Zrotation
		JOINT LeftUpLeg
		{
			OFFSET 15.427100 -6.655098 0.678600
			CHANNELS 3 Xrotation Yrotation Zrotation
			JOINT LeftLeg
			{
				OFFSET 4.081073 -39.591068 13.024000
				CHANNELS 3 Xrotation Yrotation Zrotation
				JOINT LeftFoot
				{
					OFFSET -4.081074 -37.707932 -15.979700
					CHANNELS 3 Xrotation Yrotation Zrotation
					JOINT LeftToeBase
					{
						OFFSET 5.346399 -15.068900 20.645000
						CHANNELS 3 Xrotation Yrotation Zrotation
						JOINT LeftToe_End
						{
							OFFSET 2.754700 0.931300 11.300900
							CHANNELS 3 Xrotation Yrotation Zrotation
							End Site
							{
								OFFSET 0 0 0
							}
						}
					}
				}
			}
		}
	}
	JOINT RightUpLeg_virtual
	{
		OFFSET 0.000000 0.000000 0.000000
		CHANNELS 3 Xrotation Yrotation Zrotation
		JOINT RightUpLeg
		{
			OFFSET -15.569500 -6.655098 0.678600
			CHANNELS 3 Xrotation Yrotation Zrotation
			JOINT RightLeg
			{
				OFFSET -4.081825 -39.591045 13.023800
				CHANNELS 3 Xrotation Yrotation Zrotation
				JOINT RightFoot
				{
					OFFSET 4.081824 -37.707954 -15.979600
					CHANNELS 3 Xrotation Yrotation Zrotation
					JOINT RightToeBase
					{
						OFFSET -5.346400 -15.068900 20.645000
						CHANNELS 3 Xrotation Yrotation Zrotation
						JOINT RightToe_End
						{
							OFFSET -2.754700 0.931300 11.300900
							CHANNELS 3 Xrotation Yrotation Zrotation
							End Site
							{
								OFFSET 0 0 0
							}
						}
					}
				}
			}
		}
	}
	JOINT Spine_virtual
	{
		OFFSET 0.000000 0.000000 0.000000
		CHANNELS 3 Xrotation Yrotation Zrotation
		JOINT Spine
		{
			OFFSET -0.279200 12.230698 -2.892100
			CHANNELS 3 Xrotation Yrotation Zrotation
			JOINT Spine1
			{
				OFFSET -0.232667 10.192268 -1.242267
				CHANNELS 3 Xrotation Yrotation Zrotation
				JOINT Spine1_split
				{
					OFFSET -0.232667 10.192268 -1.242267
					CHANNELS 3 Xrotation Yrotation Zrotation
					JOINT Spine2
					{
						OFFSET -0.232667 10.192268 -1.242267
						CHANNELS 3 Xrotation Yrotation Zrotation
						JOINT Neck_virtual
						{
							OFFSET 0.000000 0.000000 0.000000
							CHANNELS 3 Xrotation Yrotation Zrotation
							JOINT Neck
							{
								OFFSET -0.418800 17.814194 8.416900
								CHANNELS 3 Xrotation Yrotation Zrotation
								JOINT Head
								{
									OFFSET 0.000000 7.031097 3.806800
									CHANNELS 3 Xrotation Yrotation Zrotation
									JOINT HeadTop_End
									{
										OFFSET 0.000000 24.646606 12.978600
										CHANNELS 3 Xrotation Yrotation Zrotation
										End Site
										{
											OFFSET 0 0 0
										}
									}
								}
							}
						}
						JOINT LeftShoulder_virtual
						{
							OFFSET 0.000000 0.000000 0.000000
							CHANNELS 3 Xrotation Yrotation Zrotation
							JOINT LeftShoulder
							{
								OFFSET 8.476499 7.247704 -3.868750
								CHANNELS 3 Xrotation Yrotation Zrotation
								JOINT LeftShoulder_split
								{
									OFFSET 8.476499 7.247704 -3.868750
									CHANNELS 3 Xrotation Yrotation Zrotation
									JOINT LeftArm
									{
										OFFSET 9.308998 -2.777710 0.208600
										CHANNELS 3 Xrotation Yrotation Zrotation
										JOINT LeftForeArm
										{
											OFFSET 29.972298 0.000000 0.000000
											CHANNELS 3 Xrotation Yrotation Zrotation
											JOINT LeftHand
											{
												OFFSET 26.026505 0.000000 0.000000
												CHANNELS 3 Xrotation Yrotation Zrotation
												End Site
												{
													OFFSET 0 0 0
												}
											}
										}
									}
								}
							}
						}
						JOINT RightShoulder_virtual
						{
							OFFSET 0.000000 0.000000 0.000000
							CHANNELS 3 Xrotation Yrotation Zrotation
							JOINT RightShoulder
							{
								OFFSET -7.570500 7.247704 -3.868750
								CHANNELS 3 Xrotation Yrotation Zrotation
								JOINT RightShoulder_split
								{
									OFFSET -7.570500 7.247704 -3.868750
									CHANNELS 3 Xrotation Yrotation Zrotation
									JOINT RightArm
									{
										OFFSET -9.308998 -2.777710 0.208500
										CHANNELS 3 Xrotation Yrotation Zrotation
										JOINT RightForeArm
										{
											OFFSET -29.972300 0.000000 0.000000
											CHANNELS 3 Xrotation Yrotation Zrotation
											JOINT RightHand
											{
												OFFSET -26.026505 0.000000 0.000000
												CHANNELS 3 Xrotation Yrotation Zrotation
												End Site
												{
													OFFSET 0 0 0
												}
											}
										}
									}
								}
							}
						}
					}
				}
			}
		}
	}
}
MOTION
Frames: 4
Frame Time: 0.03333333
4.156698 11.982597 -10.836412 0.000000 0.000000 0.000000 83.593524 5.723349 -4.961649 -5.904404 9.299066 19.501585 26.528166 18.861123 2.876996 30.597093 29.176765 -15.700640 0.886702 2.996450 16.981080 0.000000 0.000000 0.000000 81.840624 -1.112561 -3.376016 -4.260245 -6.514222 -19.410949 -0.596820 -6.996310 4.188344 35.442169 -18.607541 20.083195 21.538132 -4.245387 -12.914719 0.000000 0.000000 0.000000 88.108095 3.226881 -4.838812 2.925153 0.233115 -1.908031 1.570374 0.304999 0.046822 0.379115 -2.372591 0.963356 0.000000 0.000000 0.000000 0.440528 0.173432 -0.439111 -4.764614 -13.153168 5.871519 -17.986142 -56.825340 -18.515886 0.000000 0.000000 0.000000 1.060877 0.251569 -0.407111 3.200231 -18.262362 -3.068319 -1.021816 -0.803915 -1.814602 25.328841 -22.637124 -55.029840 0.551747 -26.900852 -1.037952 0.000000 0.000000 0.000000 1.068530 0.423329 -0.254674 -0.236946 11.871176 11.819216 6.221964 6.607951 -1.542959 8.725238 -8.431669 55.428211 0.425289 27.672003 2.336294 0.000000 0.000000 0.000000 
4.154467 11.982162 -10.847818 0.000000 0.000000 0.000000 83.590806 5.725827 -4.963712 -5.921409 9.292368 19.498349 26.538435 18.860830 2.866492 30.608680 29.187611 -15.693700 0.872941 2.996301 16.982091 0.000000 0.000000 0.000000 81.839402 -1.105700 -3.385707 -4.261887 -6.499547 -19.415496 -0.587316 -6.989826 4.183116 35.439704 -18.597845 20.096008 21.536582 -4.243950 -12.920758 0.000000 0.000000 0.000000 88.102897 3.225836 -4.833224 2.924775 0.235355 -1.902445 1.566966 0.304046 0.047914 0.378614 -2.361902 0.964112 0.000000 0.000000 0.000000 0.439674 0.173434 -0.440644 -4.770879 -13.154371 5.871269 -17.985618 -56.812940 -18.518210 0.000000 0.000000 0.000000 1.065609 0.249594 -0.404215 3.207947 -18.280839 -3.041994 -1.028562 -0.799681 -1.821042 25.319890 -22.623808 -55.033170 0.546821 -26.880382 -1.029692 0.000000 0.000000 0.000000 1.069066 0.421713 -0.254085 -0.237419 11.864942 11.819071 6.238128 6.635269 -1.540092 8.720804 -8.432964 55.409046 0.438590 27.677953 2.332374 0.000000 0.000000 0.000000 
4.152559 11.983299 -10.866816 0.000000 0.000000 0.000000 83.586776 5.735256 -4.977795 -5.957830 9.289655 19.502526 26.560843 18.863014 2.854320 30.634379 29.195517 -15.694345 0.852416 2.994897 16.983564 0.000000 0.000000 0.000000 81.834231 -1.094775 -3.402744 -4.250185 -6.474174 -19.414125 -0.584264 -6.983174 4.169967 35.438020 -18.585824 20.114163 21.565214 -4.240441 -12.903272 0.000000 0.000000 0.000000 88.094168 3.224521 -4.825648 2.924285 0.241399 -1.896333 1.565882 0.304311 0.050006 0.378570 -2.346834 0.962824 0.000000 0.000000 0.000000 0.436473 0.174070 -0.440646 -4.776468 -13.153550 5.865319 -17.965870 -56.804330 -18.514078 0.000000 0.000000 0.000000 1.071678 0.248709 -0.400546 3.218341 -18.325025 -3.014030 -1.030533 -0.807737 -1.827872 25.313974 -22.601817 -55.028826 0.525719 -26.835012 -1.038708 0.000000 0.000000 0.000000 1.072368 0.421423 -0.252828 -0.238437 11.853489 11.822524 6.272161 6.670376 -1.542121 8.705855 -8.471277 55.389088 0.454936 27.682571 2.329719 0.000000 0.000000 0.000000 
4.149048 11.984909 -10.888571 0.000000 0.000000 0.000000 83.583142 5.747996 -5.003339 -6.017763 9.291923 19.517353 26.596753 18.866077 2.837449 30.670766 29.198109 -15.704895 0.827677 2.992420 16.986127 0.000000 0.000000 0.000000 81.828111 -1.079570 -3.429203 -4.229785 -6.436144 -19.406838 -0.582288 -6.974234 4.150735 35.437907 -18.571863 20.139219 21.619576 -4.234839 -12.867235 0.000000 0.000000 0.000000 88.081566 3.219119 -4.818983 2.925543 0.250253 -1.889265 1.566784 0.305572 0.052714 0.379277 -2.341311 0.964013 0.000000 0.000000 0.000000 0.431119 0.175085 -0.439736 -4.780338 -13.152360 5.856042 -17.925668 -56.799092 -18.500952 0.000000 0.000000 0.000000 1.077930 0.248660 -0.396178 3.231131 -18.389658 -2.985536 -1.027639 -0.823753 -1.839812 25.310058 -22.568513 -55.019271 0.494261 -26.793072 -1.061155 0.000000 0.000000 0.000000 1.076858 0.422485 -0.251400 -0.240938 11.837256 11.829574 6.315592 6.711690 -1.543479 8.676321 -8.546007 55.366801 0.470601 27.675167 2.326608 0.000000 0.000000 0.000000 
